<?xml version="1.0" encoding="UTF-8" standalone="no"?>
<!-- Created with Inkscape (http://www.inkscape.org/) -->

<svg
   width="594mm"
   height="420mm"
   viewBox="0 0 594 420"
   version="1.1"
   id="svg5"
   inkscape:version="1.2.2 (b0a8486541, 2022-12-01)"
   sodipodi:docname="linetrack-A2.svg"
   inkscape:export-filename="linetrack-A2.pdf"
   inkscape:export-xdpi="96"
   inkscape:export-ydpi="96"
   xmlns:inkscape="http://www.inkscape.org/namespaces/inkscape"
   xmlns:sodipodi="http://sodipodi.sourceforge.net/DTD/sodipodi-0.dtd"
   xmlns="http://www.w3.org/2000/svg"
   xmlns:svg="http://www.w3.org/2000/svg">
  <sodipodi:namedview
     id="namedview7"
     pagecolor="#ffffff"
     bordercolor="#cccccc"
     borderopacity="1"
     inkscape:showpageshadow="0"
     inkscape:pageopacity="1"
     inkscape:pagecheckerboard="0"
     inkscape:deskcolor="#d1d1d1"
     inkscape:document-units="mm"
     showgrid="true"
     inkscape:lockguides="true"
     showguides="false"
     inkscape:zoom="0.38782505"
     inkscape:cx="758.07378"
     inkscape:cy="698.76868"
     inkscape:window-width="1920"
     inkscape:window-height="1005"
     inkscape:window-x="0"
     inkscape:window-y="0"
     inkscape:window-maximized="1"
     inkscape:current-layer="layer1">
    <inkscape:grid
       units="mm"
       spacingx="10"
       spacingy="10"
       type="xygrid"
       id="grid1388" />
  </sodipodi:namedview>
  <defs
     id="defs2" />
  <g
     inkscape:label="Layer 1"
     inkscape:groupmode="layer"
     id="layer1">
    <path
       style="fill:none;stroke:#000000;stroke-width:20;stroke-linecap:square;stroke-linejoin:round;stroke-miterlimit:10;stroke-dasharray:none;stroke-opacity:1;paint-order:normal"
       d="m 40,100 v 220 c 0,40 20,60 60,60 h 50 c 40,0 40,-40 80,-40 40,0 40,40 80,40 40,0 40,-40 80,-40 40,0 40,40 80,40 h 20 c 40,0 60,-20 60,-60 V 100 C 550,60 530,40 490,40 H 340 c -40,0 -60,20 -60,60 0,40 20,60 60,60 h 30 c 40,0 60,20 60,50 0,30 -20,50 -60,50 H 220 c -40,0 -60,-20 -60,-60 V 100 C 160,60 140,40 100,40 60,40 40,60 40,100 Z"
       id="path296"
       sodipodi:nodetypes="cccszsssccccccccccccccc" />
  </g>
</svg>
