<?xml version="1.0" encoding="UTF-8" standalone="no"?>
<!-- Created with Inkscape (http://www.inkscape.org/) -->

<svg
   width="841mm"
   height="594mm"
   viewBox="0 0 841 594"
   version="1.1"
   id="svg5"
   inkscape:version="1.2.2 (b0a8486541, 2022-12-01)"
   sodipodi:docname="linetrack-A1.svg"
   inkscape:export-filename="linetrack-A1.pdf"
   inkscape:export-xdpi="96"
   inkscape:export-ydpi="96"
   xmlns:inkscape="http://www.inkscape.org/namespaces/inkscape"
   xmlns:sodipodi="http://sodipodi.sourceforge.net/DTD/sodipodi-0.dtd"
   xmlns="http://www.w3.org/2000/svg"
   xmlns:svg="http://www.w3.org/2000/svg">
  <sodipodi:namedview
     id="namedview7"
     pagecolor="#ffffff"
     bordercolor="#cccccc"
     borderopacity="1"
     inkscape:showpageshadow="0"
     inkscape:pageopacity="1"
     inkscape:pagecheckerboard="0"
     inkscape:deskcolor="#d1d1d1"
     inkscape:document-units="mm"
     showgrid="true"
     inkscape:lockguides="true"
     showguides="false"
     inkscape:zoom="0.27423372"
     inkscape:cx="1155.9483"
     inkscape:cy="1429.4376"
     inkscape:window-width="1920"
     inkscape:window-height="1005"
     inkscape:window-x="0"
     inkscape:window-y="0"
     inkscape:window-maximized="1"
     inkscape:current-layer="layer1">
    <inkscape:grid
       units="mm"
       spacingx="10"
       spacingy="10"
       type="xygrid"
       id="grid1388"
       originx="0"
       originy="0" />
  </sodipodi:namedview>
  <defs
     id="defs2" />
  <g
     inkscape:label="Layer 1"
     inkscape:groupmode="layer"
     id="layer1">
    <path
       style="fill:none;stroke:#000000;stroke-width:20;stroke-linecap:square;stroke-linejoin:round;stroke-miterlimit:10;stroke-dasharray:none;stroke-opacity:1;paint-order:normal"
       d="m 54.14,138.98 v 311.08 c 0,56.56 28.28,84.84 84.84,84.84 h 70.7 c 56.56,0 56.56,-56.56 113.12,-56.56 56.56,0 56.56,56.56 113.12,56.56 56.56,0 56.56,-56.56 113.12,-56.56 56.56,0 56.56,56.56 113.12,56.56 h 28.28 c 56.56,0 84.84,-28.28 84.84,-84.84 V 138.98 C 775.28,82.42 747,54.14 690.44,54.14 h -212.1 c -56.56,0 -84.84,28.28 -84.84,84.84 0,56.56 28.28,84.84 84.84,84.84 h 42.42 c 56.56,0 84.84,28.28 84.84,70.7 0,42.42 -28.28,70.7 -84.84,70.7 h -212.1 c -56.56,0 -84.84,-28.28 -84.84,-84.84 v -141.4 c 0,-56.56 -28.28,-84.84 -84.84,-84.84 -56.56,0 -84.84,28.28 -84.84,84.84 z"
       id="path296"
       sodipodi:nodetypes="cccszsssccccccccccccccc" />
  </g>
</svg>
