<?xml version="1.0" encoding="UTF-8" standalone="no"?>
<!-- Created with Inkscape (http://www.inkscape.org/) -->

<svg
   width="1189mm"
   height="841mm"
   viewBox="0 0 1189 841"
   version="1.1"
   id="svg5"
   inkscape:version="1.2.2 (b0a8486541, 2022-12-01)"
   sodipodi:docname="linetrack-A0.svg"
   inkscape:export-filename="linetrack.pdf"
   inkscape:export-xdpi="96"
   inkscape:export-ydpi="96"
   xmlns:inkscape="http://www.inkscape.org/namespaces/inkscape"
   xmlns:sodipodi="http://sodipodi.sourceforge.net/DTD/sodipodi-0.dtd"
   xmlns="http://www.w3.org/2000/svg"
   xmlns:svg="http://www.w3.org/2000/svg">
  <sodipodi:namedview
     id="namedview7"
     pagecolor="#ffffff"
     bordercolor="#cccccc"
     borderopacity="1"
     inkscape:showpageshadow="0"
     inkscape:pageopacity="1"
     inkscape:pagecheckerboard="0"
     inkscape:deskcolor="#d1d1d1"
     inkscape:document-units="mm"
     showgrid="true"
     inkscape:lockguides="true"
     showguides="false"
     inkscape:zoom="0.19391253"
     inkscape:cx="3295.3003"
     inkscape:cy="2067.9427"
     inkscape:window-width="1920"
     inkscape:window-height="1005"
     inkscape:window-x="0"
     inkscape:window-y="0"
     inkscape:window-maximized="1"
     inkscape:current-layer="layer1">
    <inkscape:grid
       units="mm"
       spacingx="10"
       spacingy="10"
       type="xygrid"
       id="grid1388"
       originx="0"
       originy="0" />
  </sodipodi:namedview>
  <defs
     id="defs2" />
  <g
     inkscape:label="Layer 1"
     inkscape:groupmode="layer"
     id="layer1">
    <path
       style="fill:none;stroke:#000000;stroke-width:20;stroke-linecap:square;stroke-linejoin:round;stroke-miterlimit:10;stroke-dasharray:none;stroke-opacity:1;paint-order:normal"
       d="m 80,200 v 440 c 0,80 40,120 120,120 h 100 c 80,0 80,-80 160,-80 80,0 80,80 160,80 80,0 80,-80 160,-80 80,0 80,80 160,80 h 40 c 80,0 120,-40 120,-120 V 200 C 1100,120 1060,80 980,80 H 680 c -80,0 -120,40 -120,120 0,80 40,120 120,120 h 60 c 80,0 120,40 120,100 0,60 -40,100 -120,100 H 440 C 360,520 320,480 320,400 V 200 C 320,120 280,80 200,80 120,80 80,120 80,200 Z"
       id="path296"
       sodipodi:nodetypes="cccszsssccccccccccccccc" />
  </g>
</svg>
